# xmcd
#
# Track frame offsets:
#	183
#	13953
#	26198
#	39393
#	52653
#	65128
#	80103
#	92370
#	106943
#	120370
#	133493
#	146823
#	160033
#	173440
#	189625
#	220433
#	244275
#	257625
#	274793
#	289820
#	302013
#
# Disc length: 4336 seconds
#
# Revision: 0
# Processed by: cddbd v1.5.1PL0 Copyright (c) Steve Scherf et al.
# Submitted via: audiograbber 1.82.02
#
DISCID=3410ee15
DTITLE=John Lee HOOKER - House of the blues
DYEAR=1952
DGENRE=Blues
TTITLE0=Louise
TTITLE1=High priced woman
TTITLE2=Union state blues
TTITLE3=Ground hog blues
TTITLE4=Leave my wife alone
TTITLE5=Ramblin' by myself
TTITLE6=Walkin' the boogie
TTITLE7=Sugar mama
TTITLE8=Love blues
TTITLE9=Down at the landing
TTITLE10=It's my own fault darling
TTITLE11=Women and money
TTITLE12=Stella Mae
TTITLE13=Peace lovin' man
TTITLE14=Let's go out tonight
TTITLE15=I put my trust in you
TTITLE16=One bourbon, one scotch, one beer
TTITLE17=You know, I know
TTITLE18=I'll never trust your love again
TTITLE19=In the mood
TTITLE20=The waterfront
EXTD=
EXTT0=
EXTT1=
EXTT2=
EXTT3=
EXTT4=
EXTT5=
EXTT6=
EXTT7=
EXTT8=
EXTT9=
EXTT10=
EXTT11=
EXTT12=
EXTT13=
EXTT14=
EXTT15=
EXTT16=
EXTT17=
EXTT18=
EXTT19=
EXTT20=
PLAYORDER=
